<?xml version="1.0" encoding="UTF-8" standalone="no"?>
<svg
   xmlns:dc="http://purl.org/dc/elements/1.1/"
   xmlns:cc="http://creativecommons.org/ns#"
   xmlns:rdf="http://www.w3.org/1999/02/22-rdf-syntax-ns#"
   xmlns:svg="http://www.w3.org/2000/svg"
   xmlns="http://www.w3.org/2000/svg"
   xmlns:sodipodi="http://sodipodi.sourceforge.net/DTD/sodipodi-0.dtd"
   xmlns:inkscape="http://www.inkscape.org/namespaces/inkscape"
   enable-background="new 0 0 500 500"
   height="500px"
   id="Layer_1"
   version="1.1"
   viewBox="0 0 500 500"
   width="500px"
   xml:space="preserve"
   sodipodi:docname="surveillance_with_border.svg"
   inkscape:version="0.92.1 r15371"><metadata
     id="metadata6196"><rdf:RDF><cc:Work
         rdf:about=""><dc:format>image/svg+xml</dc:format><dc:type
           rdf:resource="http://purl.org/dc/dcmitype/StillImage" /><dc:title></dc:title></cc:Work></rdf:RDF></metadata><defs
     id="defs6194" /><sodipodi:namedview
     pagecolor="#ffffff"
     bordercolor="#666666"
     borderopacity="1"
     objecttolerance="10"
     gridtolerance="10"
     guidetolerance="10"
     inkscape:pageopacity="0"
     inkscape:pageshadow="2"
     inkscape:window-width="1920"
     inkscape:window-height="1028"
     id="namedview6192"
     showgrid="false"
     inkscape:zoom="1.5301741"
     inkscape:cx="250.55475"
     inkscape:cy="250"
     inkscape:window-x="-8"
     inkscape:window-y="-8"
     inkscape:window-maximized="1"
     inkscape:current-layer="Layer_1" /><path
     clip-rule="evenodd"
     d="M165.396,352.839c7.002,19.166,27.984,29.065,46.972,22.073  l91.681-31.521l12.987,54.236c2.816,13.079,21.447,24.985,35.164,24.985h52.239c9.991,0,18.172,8.181,18.172,18.172v4.543  c0,12.537,10.18,22.712,22.715,22.712c12.537,0,22.712-10.175,22.712-22.712v-45.426v-45.431c0-12.537-10.175-22.711-22.712-22.711  c-12.535,0-22.715,10.174-22.715,22.711v4.543c0,9.991-8.181,18.172-18.172,18.172h-27.255c-9.991,0-15.724-8.447-18.172-18.172  l-8.09-31.71l93.036-31.977c18.989-6.992,28.802-28.26,21.896-47.521L396.988,56.288c-6.904-19.169-27.896-29.075-46.882-22.079  l-231.593,79.587c-18.986,7-28.8,28.257-21.888,47.521l15.625,43.52l-34.338,12.625l-1.641-4.361  c-4.268-11.992-17.442-18.17-29.253-13.811C35.113,203.652,29.026,216.92,33.302,229L74,342.122  c4.268,12.085,17.444,18.26,29.342,13.893c11.818-4.452,17.993-17.711,13.627-29.704l-3.265-8.181l13.63-7.63l16.714-4.276  L165.396,352.839z M322.672,109.163c0-12.536,10.175-22.713,22.716-22.713c12.535,0,22.711,10.177,22.711,22.713  c0,12.539-10.176,22.713-22.711,22.713C332.847,131.876,322.672,121.702,322.672,109.163z"
     fill="#010101"
     fill-rule="evenodd"
     id="path6189"
     style="stroke:#6688cc;stroke-opacity:1;stroke-width:10;stroke-miterlimit:4;stroke-dasharray:none;opacity:0.99999999" /></svg>